<svg id="Money_Coins" data-name="Money, Coins" xmlns="http://www.w3.org/2000/svg" width="24" height="24">
    <defs>
        <style>
            .cls-2{fill:none;stroke:#789dcc;stroke-linecap:round;stroke-linejoin:round;stroke-width:1.5px}
        </style>
    </defs>
    <path id="Path_70" data-name="Path 70" d="M0 0h24v24H0z" style="fill:none"/>
    <path id="Path_71" data-name="Path 71" class="cls-2" d="M13.268 8.83a2.5 2.5 0 1 1-3.536 0 2.5 2.5 0 0 1 3.536 0"/>
    <path id="Path_72" data-name="Path 72" class="cls-2" d="M21 13.982V6.1a2 2 0 0 0-2-2H4a2 2 0 0 0-2 2v9a2 2 0 0 0 2 2h8.261"/>
    <path id="Path_73" data-name="Path 73" class="cls-2" d="M5 14.1h2"/>
    <path id="Path_74" data-name="Path 74" class="cls-2" d="M16 7.1h2"/>
    <path id="Path_75" data-name="Path 75" class="cls-2" d="M15.374 14.959a3.475 3.475 0 1 0 3.251 4.932"/>
    <path id="Path_76" data-name="Path 76" class="cls-2" d="M18.521 19.9A3.479 3.479 0 1 1 22 16.423a3.48 3.48 0 0 1-3.479 3.477"/>
</svg>
